<svg width="21" height="22" viewBox="0 0 21 22" fill="none" xmlns="http://www.w3.org/2000/svg">
<path d="M1.75 18H19.25L10.5 4L1.75 18ZM11.375 15.8125C11.375 16.0446 11.2828 16.2671 11.1187 16.4312C10.9546 16.5953 10.7321 16.6875 10.5 16.6875C10.2679 16.6875 10.0454 16.5953 9.88128 16.4312C9.71719 16.2671 9.625 16.0446 9.625 15.8125V12.75C9.625 12.5179 9.71719 12.2954 9.88128 12.1313C10.0454 11.9672 10.2679 11.875 10.5 11.875C10.7321 11.875 10.9546 11.9672 11.1187 12.1313C11.2828 12.2954 11.375 12.5179 11.375 12.75V15.8125ZM11.8125 8.8125C11.8125 9.07209 11.7355 9.32585 11.5913 9.54169C11.4471 9.75752 11.2421 9.92575 11.0023 10.0251C10.7624 10.1244 10.4985 10.1504 10.2439 10.0998C9.98934 10.0491 9.75548 9.92413 9.57192 9.74058C9.38837 9.55702 9.26336 9.32316 9.21272 9.06856C9.16208 8.81396 9.18807 8.55006 9.28741 8.31023C9.38675 8.0704 9.55498 7.86542 9.77081 7.7212C9.98665 7.57698 10.2404 7.5 10.5 7.5C10.8481 7.5 11.1819 7.63828 11.4281 7.88442C11.6742 8.13056 11.8125 8.4644 11.8125 8.8125Z" fill="#103B53"/>
</svg>
