<svg width="25" height="20" viewBox="0 0 25 20" fill="none" xmlns="http://www.w3.org/2000/svg">
<path d="M7.82588 11.4494C7.99622 11.3269 8.035 11.0893 7.91257 10.9186C7.79052 10.7483 7.55251 10.7095 7.3818 10.8319L-0.000326157 16.1472V3.71707L11.9394 12.5866C12.007 12.6368 12.0865 12.6615 12.1663 12.6615C12.2462 12.6615 12.3256 12.6368 12.3933 12.5866L24.333 3.71707V16.1472L16.9509 10.8323C16.7802 10.7102 16.5429 10.7486 16.4201 10.919C16.2977 11.0893 16.3361 11.3269 16.5068 11.4497L24.333 17.0841V17.6042C24.333 18.4448 23.6528 19.125 22.8122 19.125H1.52051C0.679867 19.125 -0.000326157 18.4448 -0.000326157 17.6042V17.0841L7.82588 11.4494Z" fill="#103B53"/>
<path d="M12.1663 11.8075L-0.000326157 2.76958V2.39583C-0.000326157 1.55519 0.679867 0.875 1.52051 0.875H22.8122C23.6528 0.875 24.333 1.55519 24.333 2.39583V2.7692L12.1663 11.8075Z" fill="#103B53"/>
</svg>
