<svg width="25" height="19" viewBox="0 0 25 19" fill="none" xmlns="http://www.w3.org/2000/svg">
<path d="M7.82637 10.8941C7.9967 10.7716 8.03549 10.534 7.91306 10.3633C7.79101 10.193 7.553 10.1542 7.38229 10.2766L0.000162125 15.5919V3.16177L11.9398 12.0313C12.0075 12.0815 12.087 12.1062 12.1668 12.1062C12.2467 12.1062 12.3261 12.0815 12.3938 12.0313L24.3335 3.16177V15.5919L16.9514 10.277C16.7807 10.1549 16.5434 10.1933 16.4206 10.3637C16.2982 10.534 16.3366 10.7716 16.5073 10.8945L24.3335 16.5288V17.0489C24.3335 17.8895 23.6533 18.5697 22.8127 18.5697H1.521C0.680355 18.5697 0.000162125 17.8895 0.000162125 17.0489V16.5288L7.82637 10.8941Z" fill="#103B53"/>
<path d="M12.1668 11.2522L0.000162125 2.21428V1.84054C0.000162125 0.999895 0.680355 0.319702 1.521 0.319702H22.8127C23.6533 0.319702 24.3335 0.999895 24.3335 1.84054V2.2139L12.1668 11.2522Z" fill="#103B53"/>
</svg>
