<svg width="19" height="20" viewBox="0 0 19 20" fill="none" xmlns="http://www.w3.org/2000/svg">
<path d="M12.3333 7.16667H12.3428M12.3333 12.8333C15.4629 12.8333 18 10.2963 18 7.16667C18 4.03705 15.4629 1.5 12.3333 1.5C9.20373 1.5 6.66667 4.03705 6.66667 7.16667C6.66667 7.42514 6.68397 7.67958 6.71749 7.92887C6.77261 8.33891 6.80017 8.54395 6.78162 8.67362C6.76229 8.80877 6.73769 8.88149 6.6711 9.00068C6.60717 9.11506 6.4945 9.22773 6.26918 9.45307L1.4426 14.2797C1.27925 14.443 1.19758 14.5246 1.13917 14.6199C1.08739 14.7045 1.04923 14.7965 1.0261 14.893C1 15.0017 1 15.1172 1 15.3481V16.9889C1 17.5179 1 17.7823 1.10293 17.9843C1.19349 18.1621 1.33797 18.3065 1.51568 18.3971C1.7177 18.5 1.98217 18.5 2.51111 18.5H4.15186C4.38286 18.5 4.49835 18.5 4.60705 18.4739C4.70342 18.4508 4.79554 18.4126 4.88004 18.3608C4.97536 18.3024 5.05703 18.2207 5.22037 18.0574L10.0469 13.2308C10.2723 13.0055 10.3849 12.8928 10.4993 12.8289C10.6185 12.7623 10.6912 12.7377 10.8264 12.7184C10.956 12.6998 11.1611 12.7274 11.5712 12.7825C11.8204 12.8161 12.0748 12.8333 12.3333 12.8333Z" stroke="#103B53" stroke-width="2" stroke-linecap="round" stroke-linejoin="round"/>
</svg>
