<svg width="19" height="20" viewBox="0 0 19 20" fill="none" xmlns="http://www.w3.org/2000/svg">
<path d="M12.3333 7.61137H12.3428M12.3333 13.278C15.4629 13.278 18 10.741 18 7.61137C18 4.48175 15.4629 1.9447 12.3333 1.9447C9.20373 1.9447 6.66667 4.48175 6.66667 7.61137C6.66667 7.86984 6.68397 8.12428 6.71749 8.37357C6.77261 8.78361 6.80017 8.98865 6.78162 9.11832C6.76229 9.25347 6.73769 9.3262 6.6711 9.44539C6.60717 9.55976 6.4945 9.67243 6.26918 9.89777L1.4426 14.7244C1.27925 14.8877 1.19758 14.9693 1.13917 15.0646C1.08739 15.1492 1.04923 15.2413 1.0261 15.3377C1 15.4464 1 15.5619 1 15.7928V17.4336C1 17.9626 1 18.227 1.10293 18.429C1.19349 18.6068 1.33797 18.7512 1.51568 18.8418C1.7177 18.9447 1.98217 18.9447 2.51111 18.9447H4.15186C4.38286 18.9447 4.49835 18.9447 4.60705 18.9186C4.70342 18.8955 4.79554 18.8573 4.88004 18.8055C4.97536 18.7471 5.05703 18.6654 5.22037 18.5021L10.0469 13.6756C10.2723 13.4502 10.3849 13.3375 10.4993 13.2736C10.6185 13.207 10.6912 13.1824 10.8264 13.1631C10.956 13.1445 11.1611 13.1721 11.5712 13.2272C11.8204 13.2608 12.0748 13.278 12.3333 13.278Z" stroke="#103B53" stroke-width="2" stroke-linecap="round" stroke-linejoin="round"/>
</svg>
