<svg width="18" height="19" viewBox="0 0 18 19" fill="none" xmlns="http://www.w3.org/2000/svg">
<path d="M5.85865 1.69231C5.85865 1.30996 5.57095 1 5.21605 1C4.86116 1 4.57346 1.30996 4.57346 1.69231V3.15009C3.34025 3.25647 2.53067 3.51757 1.93588 4.15837C1.3411 4.79917 1.09875 5.67139 1 7H18C17.9013 5.67139 17.6589 4.79917 17.0641 4.15837C16.4693 3.51757 15.6598 3.25647 14.4266 3.15009V1.69231C14.4266 1.30996 14.1389 1 13.784 1C13.4291 1 13.1414 1.30996 13.1414 1.69231V3.08883C12.5714 3.07692 11.9325 3.07692 11.2136 3.07692H7.78643C7.06756 3.07692 6.42865 3.07692 5.85865 3.08883V1.69231Z" fill="#103B53"/>
<path fill-rule="evenodd" clip-rule="evenodd" d="M1 9.83673C1 9.15184 1 8.5431 1.01097 8H17.989C18 8.5431 18 9.15184 18 9.83673V11.4694C18 14.5479 18 16.0873 17.0041 17.0436C16.0084 18 14.4055 18 11.2 18H7.8C4.59445 18 2.99168 18 1.99583 17.0436C1 16.0873 1 14.5479 1 11.4694V9.83673ZM13.75 11.4694C14.2195 11.4694 14.6 11.1039 14.6 10.6531C14.6 10.2022 14.2195 9.83673 13.75 9.83673C13.2805 9.83673 12.9 10.2022 12.9 10.6531C12.9 11.1039 13.2805 11.4694 13.75 11.4694ZM13.75 14.7347C14.2195 14.7347 14.6 14.3692 14.6 13.9184C14.6 13.4675 14.2195 13.102 13.75 13.102C13.2805 13.102 12.9 13.4675 12.9 13.9184C12.9 14.3692 13.2805 14.7347 13.75 14.7347ZM10.35 10.6531C10.35 11.1039 9.96945 11.4694 9.5 11.4694C9.03055 11.4694 8.65 11.1039 8.65 10.6531C8.65 10.2022 9.03055 9.83673 9.5 9.83673C9.96945 9.83673 10.35 10.2022 10.35 10.6531ZM10.35 13.9184C10.35 14.3692 9.96945 14.7347 9.5 14.7347C9.03055 14.7347 8.65 14.3692 8.65 13.9184C8.65 13.4675 9.03055 13.102 9.5 13.102C9.96945 13.102 10.35 13.4675 10.35 13.9184ZM5.25 11.4694C5.71944 11.4694 6.1 11.1039 6.1 10.6531C6.1 10.2022 5.71944 9.83673 5.25 9.83673C4.78056 9.83673 4.4 10.2022 4.4 10.6531C4.4 11.1039 4.78056 11.4694 5.25 11.4694ZM5.25 14.7347C5.71944 14.7347 6.1 14.3692 6.1 13.9184C6.1 13.4675 5.71944 13.102 5.25 13.102C4.78056 13.102 4.4 13.4675 4.4 13.9184C4.4 14.3692 4.78056 14.7347 5.25 14.7347Z" fill="#103B53"/>
</svg>
