<svg width="76" height="105" viewBox="0 0 76 105" fill="none" xmlns="http://www.w3.org/2000/svg">
<g clip-path="url(#clip0_42_718)">
<path d="M52.5399 52.7799L57.5483 48.4157C57.9666 48.0552 58.5993 48.0982 58.9639 48.5126C59.3286 48.9323 59.2803 49.5673 58.8674 49.9332L53.859 54.2975C53.666 54.4643 53.4354 54.545 53.1995 54.545C52.9206 54.545 52.6418 54.4266 52.4434 54.2006C52.0787 53.7809 52.127 53.1459 52.5399 52.7799ZM29.9378 42.2111C29.4069 42.3779 29.1173 42.9429 29.2782 43.4703L32.0988 52.5485C32.2328 52.979 32.6296 53.2535 33.0533 53.2535C33.1498 53.2535 33.2517 53.2374 33.3536 53.2051C33.8844 53.0382 34.174 52.4732 34.0131 51.9458L31.1925 42.8676C31.0263 42.3348 30.4633 42.0389 29.9378 42.2057V42.2111ZM44.298 43.3142L41.6437 52.1342C41.4828 52.6669 41.7831 53.2266 42.314 53.388C42.4105 53.4203 42.507 53.4311 42.6035 53.4311C43.0325 53.4311 43.4293 53.1512 43.5634 52.7154L46.2177 43.8954C46.3786 43.3627 46.0783 42.803 45.5474 42.6416C45.0112 42.4801 44.4589 42.7815 44.298 43.3142ZM51.6122 45.6551L47.1347 52.1503C46.8183 52.6077 46.9363 53.232 47.3867 53.5495C47.5637 53.6679 47.7621 53.727 47.9551 53.727C48.2715 53.727 48.5879 53.5764 48.7809 53.2912L53.2584 46.7959C53.5748 46.3385 53.4569 45.7143 53.0064 45.3968C52.5453 45.0793 51.9286 45.1977 51.6122 45.6497V45.6551ZM36.764 41.5922V51.8328C36.764 52.3871 37.2144 52.8391 37.7667 52.8391C38.3191 52.8391 38.7695 52.3871 38.7695 51.8328V41.5922C38.7695 41.0379 38.3191 40.5859 37.7667 40.5859C37.2144 40.5859 36.764 41.0379 36.764 41.5922ZM27.7607 53.4795C27.9537 53.4795 28.1521 53.4203 28.3237 53.3019C28.7795 52.9898 28.8975 52.3656 28.5811 51.9028L24.3127 45.6551C24.0017 45.1977 23.3797 45.0793 22.9185 45.3968C22.4627 45.7089 22.3447 46.3331 22.6611 46.7959L26.9295 53.0436C27.1226 53.3288 27.4389 53.4795 27.7553 53.4795H27.7607ZM16.7787 48.1466C16.4087 48.561 16.4408 49.196 16.8537 49.5673L21.7334 53.9692C21.9265 54.1414 22.1624 54.2275 22.4037 54.2275C22.6772 54.2275 22.9507 54.1145 23.1491 53.8939C23.5191 53.4795 23.4869 52.8445 23.074 52.4732L18.1943 48.0713C17.7868 47.7 17.1487 47.7323 16.7787 48.1466ZM67.3184 54.7387C67.6455 55.1746 67.7742 55.6966 67.7099 56.1971C67.6455 56.6975 67.3881 57.1765 66.9645 57.5047L57.5161 64.6565C57.425 64.7318 57.3177 64.7803 57.1944 64.7964L46.7486 66.3032L45.5957 67.2287L45.8424 67.8153C45.9818 68.1489 45.8209 68.5364 45.4885 68.6763L42.1799 70.0593C41.8475 70.1992 41.4614 70.0378 41.3219 69.7041L38.008 61.7183L34.6941 69.7041C34.5547 70.0378 34.174 70.1992 33.8415 70.0593L30.5276 68.6763C30.1952 68.5364 30.0343 68.1543 30.1737 67.8153L30.4204 67.2287L29.2675 66.3032L18.8217 64.7964C18.6984 64.7803 18.5911 64.7264 18.5 64.6565L9.05157 57.5047C8.62258 57.1711 8.37056 56.6975 8.30621 56.1971C8.24186 55.6966 8.36519 55.1746 8.69766 54.7387L9.16954 54.1306C9.49128 53.7324 9.92563 53.5118 10.3868 53.4526C10.8694 53.388 11.3788 53.5064 11.8239 53.7701L19.6153 58.3926L21.0095 58.3657C21.1168 57.9137 21.3795 57.5316 21.7334 57.2572C22.1356 56.9505 22.6504 56.7944 23.1866 56.8697C24.9776 57.1119 26.7472 57.015 28.1789 56.9397C29.2031 56.8859 30.0665 56.8374 30.6885 56.9235C31.0853 56.9774 32.1685 57.5155 33.3107 58.0859L34.0667 58.4626L34.3027 57.8976C34.4421 57.5639 34.8228 57.4025 35.1607 57.5424L38.0241 58.737L40.8876 57.5424C41.2201 57.4025 41.6061 57.5639 41.7456 57.8976L41.9815 58.4626L42.7376 58.0859C43.8798 57.5155 44.963 56.9774 45.3598 56.9235C45.9818 56.8374 46.8451 56.8859 47.8693 56.9397C49.3011 57.015 51.0706 57.1119 52.8616 56.8697C53.3979 56.7998 53.9127 56.9558 54.3148 57.2572C54.6687 57.5263 54.9261 57.9137 55.0387 58.3657L56.4329 58.3926L64.2244 53.7701C64.6694 53.5064 65.1842 53.3934 65.6615 53.4526C66.1226 53.5118 66.557 53.7324 66.8787 54.1306L67.3506 54.7387H67.3184ZM30.9352 65.9695L33.5466 59.6734L32.7154 59.259C31.6751 58.737 30.6885 58.2473 30.5008 58.2204C29.9807 58.1505 29.1817 58.1935 28.2325 58.242C26.7418 58.3227 24.8918 58.4195 22.9989 58.1666C22.822 58.1451 22.645 58.1935 22.511 58.2958C22.3769 58.398 22.2857 58.5541 22.2589 58.7317L22.1624 59.4474C22.1356 59.625 22.1892 59.8025 22.2911 59.9317C22.393 60.0662 22.5485 60.1577 22.7255 60.1846L24.9401 60.4806C25.2994 60.529 25.5514 60.8573 25.5031 61.2178C25.4549 61.5784 25.1278 61.8313 24.7685 61.7829L22.5539 61.4869C22.0176 61.4169 21.5618 61.1317 21.2508 60.7281C21.0202 60.4268 20.8808 60.0608 20.8486 59.6734L19.4437 59.7057C19.3258 59.7057 19.2078 59.6788 19.1005 59.6142L11.1429 54.8948C10.9498 54.7818 10.73 54.728 10.5369 54.7549C10.3975 54.771 10.2688 54.8356 10.1723 54.9486L9.7165 55.5406C9.60925 55.6805 9.56635 55.858 9.5878 56.0303C9.60925 56.1971 9.69505 56.3585 9.83447 56.4715L19.1542 63.5318L29.5731 65.0332C29.7018 65.0439 29.8305 65.087 29.9378 65.1731L30.9298 65.9695H30.9352ZM37.2895 60.0124L37.2144 59.8348L35.2411 59.0115C34.0346 61.9174 32.828 64.8179 31.6269 67.7238L33.7289 68.601L37.2895 60.0124ZM44.3731 67.7184C43.1719 64.8125 41.9654 61.912 40.7589 59.0061L38.7856 59.8294L38.7105 60.007L42.2711 68.5956L44.3731 67.7184ZM66.4122 56.0303C66.4336 55.8634 66.3907 55.6858 66.2835 55.5406L65.8277 54.9486C65.7312 54.8356 65.6025 54.771 65.4631 54.7549C65.27 54.728 65.0555 54.7818 64.8571 54.8948L56.8995 59.6142C56.7922 59.6788 56.6742 59.7057 56.5563 59.7057L55.1513 59.6734C55.1245 60.0608 54.9797 60.4268 54.7492 60.7281C54.4435 61.1317 53.9824 61.4169 53.4461 61.4869L51.2315 61.7829C50.8722 61.8313 50.5451 61.5784 50.4969 61.2178C50.4486 60.8573 50.7006 60.529 51.0599 60.4806L53.2745 60.1846C53.4515 60.1631 53.607 60.0662 53.7089 59.9317C53.8108 59.7972 53.859 59.625 53.8376 59.4474L53.7411 58.7317C53.7142 58.5541 53.6231 58.398 53.489 58.2958C53.355 58.1935 53.1834 58.1451 53.0011 58.1666C51.1082 58.4195 49.2582 58.3227 47.7674 58.242C46.8183 58.1935 46.0193 58.1505 45.4992 58.2204C45.3115 58.2473 44.3248 58.737 43.2846 59.259L42.4534 59.6734L45.0648 65.9695L46.0569 65.1731C46.1641 65.087 46.2928 65.0386 46.4215 65.0332L56.8405 63.5318L66.1602 56.4715C66.2996 56.3585 66.3854 56.2024 66.4068 56.0303H66.4122ZM61.7684 31.6099V33.644C61.6826 33.6494 61.2161 33.6925 60.2938 33.6925C59.5216 33.6925 58.9639 33.6602 58.7709 33.644V31.6099C55.7895 31.7444 53.5641 32.261 53.5641 32.8853C53.5641 33.5095 55.7895 34.0315 58.7709 34.1606C58.9639 34.166 59.5055 34.1875 60.2831 34.1875C61.2537 34.1875 61.688 34.1606 61.7738 34.1553C64.7499 34.0207 66.9699 33.4987 66.9699 32.8799C66.9699 32.261 64.7499 31.739 61.7738 31.6045L61.7684 31.6099ZM24.3663 12.7323C24.9294 11.9681 25.546 11.247 26.227 10.5851C24.5486 10.1546 23.0526 9.65955 21.7871 9.13218C20.2642 8.49719 20.2642 6.307 21.7871 5.67739C25.5353 4.12219 31.1282 2.78763 38.2547 2.78763C45.3812 2.78763 50.9741 4.12219 54.7224 5.67739C56.2453 6.31238 56.2453 8.50257 54.7224 9.13218C53.4515 9.65955 51.9554 10.1546 50.277 10.5851C50.958 11.247 51.5747 11.9681 52.1377 12.7323C55.9289 11.387 58.2937 9.49811 58.2937 7.40479C58.2937 3.315 49.3225 0.00549316 38.2547 0.00549316C27.1869 0.00549316 18.2158 3.32038 18.2158 7.40479C18.2158 9.49811 20.5805 11.387 24.3717 12.7323H24.3663ZM40.716 20.3522C40.7267 18.3719 37.756 18.6625 36.8122 18.6571L36.7962 22.0096C37.7399 22.0096 40.7053 22.2518 40.716 20.3522ZM36.7854 23.6994L36.7693 27.3963C37.9062 27.3963 41.4614 27.6546 41.4667 25.5721C41.4775 23.398 37.9169 23.7101 36.7854 23.7048V23.6994ZM52.7919 23.2958C52.7544 31.4915 46.0998 38.1105 37.9276 38.0675C29.7608 38.0298 23.1705 31.3516 23.2081 23.1505C23.2456 14.9494 29.9002 8.33575 38.067 8.37342C46.2338 8.41109 52.8295 15.0893 52.7866 23.2904L52.7919 23.2958ZM42.389 22.4348C43.3596 21.9451 43.9709 21.0733 43.8369 19.615C43.6546 17.6239 41.9493 16.9512 39.7883 16.7521L39.7991 13.9915H38.126L38.1153 16.6714C37.6756 16.6714 37.2251 16.6714 36.7801 16.6822L36.7908 13.9807H35.1178L35.1017 16.7306C34.737 16.736 34.3831 16.7413 34.0346 16.7413V16.7306L31.7288 16.7198V18.5118C31.7288 18.5118 32.9567 18.4957 32.9353 18.5118C33.6109 18.5118 33.8308 18.91 33.8951 19.2544L33.8791 22.4079L33.8576 26.8098C33.8254 27.025 33.7021 27.364 33.2249 27.364C33.2463 27.3856 32.0076 27.3587 32.0076 27.3587L31.6644 29.3605L33.8415 29.3713C34.2491 29.3713 34.6459 29.382 35.0373 29.3874L35.0266 32.1803L36.6996 32.1911L36.7104 29.4305C37.1715 29.4412 37.6112 29.4466 38.0456 29.452L38.0295 32.2018H39.7025L39.7186 29.4251C42.5338 29.2744 44.5018 28.5748 44.7592 25.9272C44.9683 23.7962 43.9709 22.8384 42.3783 22.4455L42.389 22.4348ZM15.3952 45.2784C8.8478 45.2784 3.53912 39.9509 3.53912 33.3803C3.53912 26.8098 8.8478 21.4823 15.3952 21.4823C17.524 21.4823 19.5188 22.0527 21.2455 23.0375C21.2455 23.0751 21.2401 23.1074 21.2401 23.1451C21.2133 28.2251 23.4494 32.783 26.9831 35.8826C25.8356 41.2532 21.0846 45.2784 15.3898 45.2784H15.3952ZM10.2045 33.5418L15.7598 36.7813L21.3152 33.5418L15.7598 24.4528L10.2045 33.5418ZM10.2045 34.5804L15.7598 42.3025L21.3205 34.5804L15.7598 37.8199L10.2045 34.5804ZM72.4662 33.0306C72.4662 39.7949 67.002 45.2784 60.2616 45.2784C54.658 45.2784 49.9499 41.4846 48.5128 36.3185C52.2986 33.2512 54.7331 28.5695 54.7599 23.3012C54.7599 22.9083 54.7331 22.5209 54.7063 22.1334C56.3739 21.2778 58.2561 20.7827 60.2616 20.7827C67.002 20.7827 72.4662 26.2663 72.4662 33.0306ZM67.667 33.0306C67.667 32.2287 65.136 31.5561 61.7684 31.4V29.5758H65.9189V26.799H54.6151V29.5758H58.7655V31.3946C55.3926 31.5507 52.8563 32.2234 52.8563 33.0252C52.8563 33.827 55.3926 34.4997 58.7655 34.6557V40.489H61.7684V34.6503C65.136 34.4943 67.667 33.8216 67.667 33.0198V33.0306ZM-8.7847e-06 91.9612L1.77492 87.9306C3.3139 88.8454 5.37302 89.432 7.1694 89.432C8.73519 89.432 9.29287 89.1037 9.29287 88.5441C9.29287 86.483 0.25202 88.1459 0.25202 82.0273C0.25202 78.9815 2.79912 76.4953 7.8665 76.4953C10.0597 76.4953 12.3279 76.9635 14.0332 77.9268L12.3762 81.9358C10.7675 81.1179 9.24461 80.7143 7.81824 80.7143C6.20955 80.7143 5.69476 81.1825 5.69476 81.7475C5.69476 83.7171 14.7356 82.0758 14.7356 88.1243C14.7356 91.1271 12.1885 93.6563 7.12114 93.6563C4.38636 93.6563 1.63013 92.9783 -0.00537109 91.9666L-8.7847e-06 91.9612ZM27.514 90.4168H21.2991L20.1998 93.2796H14.5962L21.7442 76.8667H27.1654L34.3134 93.2796H28.6133L27.514 90.4168ZM25.9965 86.4292L24.4092 82.3018L22.822 86.4292H25.9965ZM35.1982 76.8667H40.7106V93.2796H35.1982V76.8667ZM59.4895 76.8667V93.2796H54.9583L48.7434 85.8265V93.2796H43.3703V76.8667H47.9015L54.1164 84.3198V76.8667H59.4895ZM65.699 81.1556H60.9105V76.8667H76V81.1556H71.2115V93.2796H65.699V81.1556ZM13.2127 101.379H9.62534C9.72722 102.159 10.3492 102.675 11.2287 102.675C11.7434 102.675 12.1778 102.498 12.5049 102.137L12.9446 102.654C12.5478 103.122 11.9365 103.375 11.2019 103.375C9.77548 103.375 8.82635 102.428 8.82635 101.109C8.82635 99.791 9.77012 98.8493 11.0463 98.8493C12.3226 98.8493 13.2342 99.7695 13.2342 101.136C13.2342 101.201 13.2234 101.303 13.2181 101.379H13.2127ZM9.62534 100.797H12.462C12.3762 100.055 11.8185 99.5273 11.0463 99.5273C10.2742 99.5273 9.71113 100.044 9.6307 100.797H9.62534ZM19.5295 103.327L18.2533 101.626L16.961 103.327H16.0708L17.8136 101.061L16.1566 98.8923H17.0468L18.264 100.491L19.4759 98.8923H20.35L18.6823 101.061L20.4411 103.327H19.5349H19.5295ZM23.251 101.109C23.251 99.791 24.2269 98.8493 25.5889 98.8493C26.3826 98.8493 27.0421 99.1775 27.3907 99.7964L26.7847 100.189C26.5005 99.7533 26.0662 99.5542 25.5836 99.5542C24.7149 99.5542 24.066 100.162 24.066 101.109C24.066 102.057 24.7149 102.675 25.5836 102.675C26.0662 102.675 26.5005 102.476 26.7847 102.04L27.3907 102.428C27.0421 103.047 26.3826 103.38 25.5889 103.38C24.2269 103.38 23.251 102.433 23.251 101.115V101.109ZM35.0534 100.776V103.327H34.2544V100.867C34.2544 99.9955 33.8201 99.5704 33.064 99.5704C32.2114 99.5704 31.6644 100.082 31.6644 101.039V103.327H30.8654V97.1165H31.6644V99.5166C31.9969 99.0914 32.5492 98.8493 33.2249 98.8493C34.2973 98.8493 35.0588 99.4681 35.0588 100.776H35.0534ZM42.5392 100.652V103.332H41.7777V102.745C41.5096 103.144 41.0217 103.38 40.3246 103.38C39.3218 103.38 38.6891 102.842 38.6891 102.073C38.6891 101.362 39.1448 100.776 40.464 100.776H41.7295V100.614C41.7295 99.9363 41.338 99.5435 40.5444 99.5435C40.0189 99.5435 39.4827 99.7264 39.1448 100.022L38.8124 99.4197C39.2735 99.0484 39.9331 98.8493 40.6409 98.8493C41.8528 98.8493 42.5338 99.4359 42.5338 100.647L42.5392 100.652ZM41.7348 101.97V101.352H40.5015C39.7079 101.352 39.4827 101.658 39.4827 102.035C39.4827 102.476 39.8473 102.756 40.4586 102.756C41.0699 102.756 41.5364 102.482 41.7348 101.97ZM50.7113 100.776V103.327H49.9124V100.867C49.9124 99.9955 49.478 99.5704 48.7219 99.5704C47.8693 99.5704 47.3224 100.082 47.3224 101.039V103.327H46.5234V98.8923H47.2902V99.5596C47.6173 99.1076 48.1803 98.8493 48.8828 98.8493C49.9553 98.8493 50.7167 99.4681 50.7167 100.776H50.7113ZM58.9479 98.8923V102.724C58.9479 104.29 58.1542 105 56.6528 105C55.8431 105 55.028 104.774 54.5454 104.338L54.9315 103.719C55.339 104.069 55.9825 104.295 56.6313 104.295C57.6716 104.295 58.1489 103.811 58.1489 102.805V102.455C57.7628 102.918 57.189 103.138 56.5563 103.138C55.28 103.138 54.3148 102.266 54.3148 100.986C54.3148 99.7049 55.2854 98.8439 56.5563 98.8439C57.2158 98.8439 57.8164 99.0861 58.1918 99.5704V98.887H58.9532L58.9479 98.8923ZM58.165 100.991C58.165 100.13 57.5322 99.5542 56.6474 99.5542C55.7626 99.5542 55.1192 100.13 55.1192 100.991C55.1192 101.852 55.7519 102.439 56.6474 102.439C57.5429 102.439 58.165 101.847 58.165 100.991ZM66.9484 101.379H63.361C63.4629 102.159 64.085 102.675 64.9644 102.675C65.4791 102.675 65.9135 102.498 66.2406 102.137L66.6803 102.654C66.2835 103.122 65.6722 103.375 64.9376 103.375C63.5112 103.375 62.5621 102.428 62.5621 101.109C62.5621 99.791 63.5058 98.8493 64.7821 98.8493C66.0583 98.8493 66.9699 99.7695 66.9699 101.136C66.9699 101.201 66.9591 101.303 66.9538 101.379H66.9484ZM63.361 100.797H66.1977C66.1119 100.055 65.5542 99.5273 64.7821 99.5273C64.0099 99.5273 63.4468 100.044 63.3664 100.797H63.361Z" fill="url(#paint0_linear_42_718)"/>
</g>
<defs>
<linearGradient id="paint0_linear_42_718" x1="1.10463" y1="15.7243" x2="50.4589" y2="74.0847" gradientUnits="userSpaceOnUse">
<stop stop-color="#009DE0"/>
<stop offset="1" stop-color="#24498C"/>
</linearGradient>
<clipPath id="clip0_42_718">
<rect width="76" height="105" fill="white"/>
</clipPath>
</defs>
</svg>
