<svg width="221" height="79" viewBox="0 0 221 79" fill="none" xmlns="http://www.w3.org/2000/svg">
<g clip-path="url(#clip0_13_271)">
<path d="M55.6489 59.4684L61.3366 54.5518C61.8152 54.1467 62.5332 54.1944 62.94 54.663C63.3548 55.1396 63.299 55.8544 62.8283 56.2595L57.1406 61.1762C56.9252 61.3588 56.662 61.4542 56.3907 61.4542C56.0717 61.4542 55.7605 61.3191 55.5292 61.065C55.1144 60.5884 55.1702 59.8735 55.6409 59.4684H55.6489ZM29.9862 47.562C29.388 47.7447 29.0529 48.3802 29.2364 48.9838L32.4432 59.2143C32.5948 59.6988 33.0415 60.0086 33.5281 60.0086C33.6398 60.0086 33.7515 59.9927 33.8711 59.953C34.4694 59.7703 34.8045 59.1348 34.621 58.5312L31.4142 48.3007C31.2227 47.705 30.5845 47.3635 29.9862 47.5541V47.562ZM46.2916 48.8091L43.2762 58.7456C43.0928 59.3413 43.4358 59.9768 44.0341 60.1595C44.1458 60.1912 44.2574 60.2071 44.3611 60.2071C44.8477 60.2071 45.3024 59.8894 45.454 59.4049L48.4694 49.4683C48.6529 48.8726 48.3098 48.2372 47.7116 48.0545C47.1053 47.8718 46.4751 48.2134 46.2916 48.8091ZM54.5959 51.4382L49.5144 58.7536C49.1554 59.2699 49.2831 59.9768 49.8016 60.3342C50.001 60.4692 50.2244 60.5328 50.4477 60.5328C50.8067 60.5328 51.1657 60.358 51.389 60.0483L56.4705 52.7329C56.8295 52.2166 56.7018 51.5097 56.1833 51.1522C55.6648 50.7948 54.9548 50.9298 54.5959 51.4382ZM37.7401 46.8631V58.4041C37.7401 59.0316 38.2506 59.5399 38.8808 59.5399C39.511 59.5399 40.0215 59.0316 40.0215 58.4041V46.8631C40.0215 46.2356 39.511 45.7272 38.8808 45.7272C38.2506 45.7272 37.7401 46.2356 37.7401 46.8631ZM27.5133 60.2548C27.7367 60.2548 27.96 60.1912 28.1515 60.0562C28.67 59.7067 28.8056 58.9998 28.4466 58.4835L23.6045 51.4461C23.2535 50.9298 22.5435 50.7948 22.025 51.1522C21.5065 51.5017 21.3709 52.2086 21.7299 52.7249L26.572 59.7623C26.7874 60.08 27.1464 60.2548 27.5133 60.2548ZM15.037 54.25C14.6142 54.7186 14.6541 55.4334 15.1247 55.8465L20.6689 60.8028C20.8843 61.0014 21.1555 61.0967 21.4267 61.0967C21.7378 61.0967 22.0489 60.9696 22.2723 60.7234C22.6951 60.2548 22.6552 59.5399 22.1846 59.1269L16.6404 54.1705C16.1777 53.7495 15.4518 53.7893 15.037 54.2579V54.25ZM72.4329 61.6766C72.8078 62.1611 72.9514 62.7568 72.8796 63.3207C72.8078 63.8847 72.5206 64.4248 72.034 64.7981L61.3047 72.8602C61.201 72.9396 61.0813 73.0031 60.9377 73.019L49.0757 74.7188L47.7674 75.7593L48.0466 76.4265C48.2061 76.7998 48.0227 77.2367 47.6477 77.3955L43.8905 78.9524C43.5076 79.1112 43.0768 78.9285 42.9173 78.5552L39.152 69.5559L35.3868 78.5552C35.2273 78.9285 34.7965 79.1112 34.4136 78.9524L30.6563 77.3955C30.2814 77.2367 30.0979 76.8078 30.2575 76.4265L30.5367 75.7593L29.2284 74.7188L17.3663 73.019C17.2227 73.0031 17.1031 72.9396 16.9994 72.8602L6.27007 64.7981C5.78346 64.4248 5.49628 63.8847 5.42449 63.3207C5.35269 62.7568 5.49628 62.169 5.87121 61.6766L6.40568 60.9855C6.77263 60.5328 7.26722 60.2866 7.78573 60.223C8.32818 60.1515 8.91052 60.2786 9.42106 60.5804L18.2678 65.791L19.8472 65.7592C19.9669 65.2509 20.27 64.814 20.6689 64.5122C21.1236 64.1706 21.7059 63.9959 22.3202 64.0753C24.3544 64.3454 26.3646 64.2421 27.9919 64.1547C29.1566 64.0912 30.1378 64.0435 30.8398 64.1389C31.2865 64.2024 32.523 64.8061 33.8153 65.4494L34.6689 65.8704L34.9321 65.235C35.0916 64.8617 35.5224 64.679 35.9053 64.8378L39.152 66.1881L42.3988 64.8378C42.7737 64.679 43.2124 64.8617 43.372 65.235L43.6352 65.8704L44.4888 65.4494C45.7891 64.8061 47.0175 64.1945 47.4643 64.1389C48.1742 64.0435 49.1474 64.0991 50.3121 64.1547C51.9395 64.2421 53.9497 64.3454 55.9839 64.0753C56.5902 63.9959 57.1805 64.1706 57.6352 64.5122C58.034 64.814 58.3292 65.2509 58.4568 65.7592L60.0363 65.791L68.883 60.5804C69.3856 60.2786 69.9679 60.1515 70.5183 60.223C71.0448 60.2866 71.5314 60.5407 71.8984 60.9855L72.4329 61.6766ZM31.111 74.3296L34.0785 67.2366L33.1372 66.768C31.9566 66.1802 30.8398 65.6321 30.6244 65.6003C30.0341 65.5209 29.1247 65.5686 28.0478 65.6242C26.3566 65.7115 24.2506 65.8228 22.1048 65.5368C21.8974 65.513 21.7059 65.5686 21.5544 65.6798C21.4028 65.7989 21.2991 65.9657 21.2672 66.1722L21.1555 66.9745C21.1316 67.173 21.1874 67.3716 21.2991 67.5225C21.4108 67.6734 21.5863 67.7767 21.7937 67.8085L24.3065 68.1421C24.7133 68.1977 25.0005 68.571 24.9447 68.9761C24.8888 69.3812 24.5139 69.6671 24.1071 69.6115L21.5942 69.2779C20.988 69.1985 20.4695 68.8728 20.1185 68.4201C19.8552 68.0785 19.6957 67.6734 19.6638 67.2286L18.0683 67.2604C17.9327 67.2604 17.7971 67.2286 17.6774 67.1572L8.63929 61.8434C8.41593 61.7163 8.16864 61.6527 7.95326 61.6845C7.79371 61.7083 7.65012 61.7798 7.53844 61.9069L7.01992 62.5741C6.90027 62.733 6.8524 62.9315 6.87634 63.1222C6.90027 63.3128 6.99599 63.4875 7.15554 63.6146L17.7413 71.5655L29.5714 73.2573C29.715 73.2652 29.8586 73.3208 29.9862 73.4162L31.111 74.3137V74.3296ZM38.3384 67.6178L38.2506 67.4193L36.009 66.49C34.6369 69.7624 33.2729 73.0349 31.9008 76.3074L34.2859 77.3002L38.3304 67.6258L38.3384 67.6178ZM46.3794 76.2994C45.0153 73.0269 43.6432 69.7545 42.2711 66.482L40.0295 67.4113L39.9418 67.6099L43.9862 77.2843L46.3714 76.2915L46.3794 76.2994ZM71.4038 63.1301C71.4277 62.9395 71.3799 62.7409 71.2602 62.5821L70.7417 61.9148C70.63 61.7878 70.4864 61.7163 70.3269 61.6924C70.1035 61.6607 69.8642 61.7242 69.6408 61.8513L60.6027 67.1651C60.483 67.2366 60.3474 67.2684 60.2118 67.2684L58.6164 67.2366C58.5845 67.6734 58.4169 68.0865 58.1617 68.428C57.8107 68.8808 57.2922 69.2064 56.6859 69.2859L54.1731 69.6195C53.7662 69.675 53.3913 69.3891 53.3355 68.984C53.2796 68.5789 53.5668 68.2056 53.9737 68.15L56.4865 67.8164C56.6859 67.7926 56.8614 67.6814 56.981 67.5305C57.0927 67.3796 57.1565 67.181 57.1246 66.9824L57.013 66.1802C56.989 65.9737 56.8773 65.8069 56.7258 65.6877C56.5742 65.5765 56.3748 65.513 56.1754 65.5447C54.0215 65.8307 51.9235 65.7195 50.2323 65.6321C49.1554 65.5765 48.246 65.5289 47.6557 65.6083C47.4403 65.6401 46.3235 66.1881 45.1429 66.7759L44.2016 67.2445L47.1691 74.3375L48.2939 73.44C48.4135 73.3447 48.5651 73.2891 48.7087 73.2811L60.5389 71.5893L71.1246 63.6385C71.2841 63.5114 71.3799 63.3287 71.4038 63.146V63.1301ZM66.1309 35.6159V37.9114C66.0352 37.9194 65.5087 37.967 64.4557 37.967C63.5782 37.967 62.948 37.9273 62.7246 37.9114V35.6159C59.3423 35.7668 56.8135 36.3546 56.8135 37.0536C56.8135 37.7526 59.3423 38.3403 62.7246 38.4913C62.94 38.4992 63.5622 38.523 64.4397 38.523C65.5406 38.523 66.0352 38.4913 66.1309 38.4913C69.5052 38.3403 72.034 37.7526 72.034 37.0536C72.034 36.3546 69.5132 35.7668 66.1309 35.6159ZM23.6524 14.3449C24.2905 13.4791 24.9925 12.6689 25.7663 11.9223C23.8598 11.4378 22.1606 10.8738 20.7247 10.286C18.9937 9.57119 18.9937 7.10095 20.7247 6.39403C24.9846 4.63865 31.3344 3.13744 39.4233 3.13744C47.5121 3.13744 53.8699 4.63865 58.1218 6.39403C59.8528 7.10889 59.8528 9.57913 58.1218 10.286C56.6779 10.8818 54.9788 11.4378 53.0722 11.9223C53.846 12.6689 54.54 13.4791 55.1862 14.3449C59.4859 12.8278 62.1742 10.6991 62.1742 8.34004C62.1742 3.73316 51.9873 0 39.4153 0C26.8432 0 16.6564 3.73316 16.6564 8.34004C16.6564 10.6991 19.3447 12.8278 23.6444 14.3449H23.6524ZM42.2233 22.9311C42.2312 20.6992 38.8649 21.0248 37.7879 21.0248L37.772 24.8057C38.8489 24.8057 42.2153 25.0757 42.2233 22.9391V22.9311ZM37.764 26.704L37.7401 30.8661C39.0244 30.8661 43.0688 31.16 43.0768 28.8089C43.0848 26.3625 39.0483 26.7119 37.764 26.704ZM55.936 26.2433C55.8962 35.4809 48.3338 42.9313 39.0563 42.8916C29.7868 42.844 22.2962 35.322 22.3441 26.0845C22.384 16.8469 29.9464 9.39644 39.2159 9.43616C48.4933 9.47587 55.9759 17.0057 55.936 26.2433ZM44.1218 25.2743C45.2227 24.7183 45.9167 23.7413 45.7651 22.0971C45.5577 19.8572 43.6193 19.0947 41.1703 18.8723L41.1862 15.7666H39.2876L39.2717 18.7849C38.7771 18.7849 38.2666 18.7849 37.756 18.8008L37.772 15.7587H35.8734L35.8575 18.8564C35.4426 18.8564 35.0438 18.8723 34.6449 18.8644L32.0284 18.8405V20.858C32.0284 20.858 33.4244 20.8342 33.4005 20.858C34.1663 20.858 34.4216 21.3108 34.4934 21.692L34.4774 25.2425L34.4535 30.1989C34.4216 30.4372 34.278 30.8264 33.7355 30.8184C33.7595 30.8423 32.3555 30.8184 32.3555 30.8184L31.9646 33.0742H34.4375C34.9002 33.0901 35.3469 33.098 35.7936 33.106L35.7777 36.2514H37.6763L37.6922 33.1536C38.2107 33.1695 38.7213 33.1695 39.2079 33.1775L39.1919 36.2752H41.0905L41.1064 33.1457C44.3053 32.9789 46.5389 32.1846 46.8341 29.206C47.0734 26.7993 45.9406 25.727 44.1298 25.2822L44.1218 25.2743ZM13.4655 51.0172C6.03075 51.0172 0 45.0124 0 37.6096C0 30.2068 6.03075 24.202 13.4655 24.202C15.8826 24.202 18.1481 24.8454 20.1105 25.9574C20.1105 25.9971 20.1105 26.0368 20.1105 26.0765C20.0786 31.8033 22.6233 36.9345 26.6358 40.4293C25.3355 46.4818 19.935 51.0172 13.4735 51.0172H13.4655ZM7.57833 37.7923L13.8883 41.4381L20.1982 37.7923L13.8883 27.5539L7.57833 37.7923ZM7.57833 38.9599L13.8883 47.6574L20.1982 38.9599L13.8883 42.6057L7.57833 38.9599ZM78.2801 37.2204C78.2801 44.8456 72.0739 51.0172 64.4238 51.0172C58.058 51.0172 52.7133 46.7439 51.0859 40.9218C55.3856 37.4666 58.1537 32.1925 58.1776 26.2592C58.1776 25.8144 58.1457 25.3775 58.1138 24.9407C60.0044 23.9716 62.1503 23.4156 64.4238 23.4156C72.0739 23.4156 78.2801 29.5952 78.2801 37.2124V37.2204ZM72.8317 37.2124C72.8317 36.307 69.952 35.5524 66.1309 35.3776V33.3284H70.8454V30.1989H58.0101V33.3284H62.7246V35.3776C58.8956 35.5524 56.0078 36.307 56.0078 37.2124C56.0078 38.1179 58.8876 38.8725 62.7246 39.0473V45.624H66.1309V39.0473C69.952 38.8725 72.8317 38.1179 72.8317 37.2124ZM93.2374 49.0871L96.2208 42.3594C98.8134 43.8845 102.268 44.8615 105.291 44.8615C107.923 44.8615 108.865 44.3134 108.865 43.3761C108.865 39.9369 93.6681 42.7089 93.6681 32.5023C93.6681 27.4189 97.9519 23.2727 106.472 23.2727C110.165 23.2727 113.97 24.0511 116.842 25.6555L114.058 32.3435C111.346 30.9773 108.793 30.3101 106.4 30.3101C103.687 30.3101 102.826 31.0885 102.826 32.0337C102.826 35.322 118.022 32.5817 118.022 42.6692C118.022 47.6732 113.739 51.8989 105.219 51.8989C100.624 51.8989 95.9895 50.763 93.2453 49.0871H93.2374ZM139.497 46.5056H129.047L127.196 51.2793H117.775L129.789 23.9081H138.899L150.92 51.2793H141.34L139.489 46.5056H139.497ZM136.944 39.8574L134.272 32.9789L131.6 39.8574H136.936H136.944ZM152.404 23.9081H161.674V51.2793H152.404V23.9081ZM193.247 23.9081V51.2793H185.629L175.179 38.8407V51.2793H166.149V23.9081H173.767L184.217 36.3467V23.9081H193.247ZM203.682 31.0647H195.633V23.9081H221V31.0647H212.951V51.2793H203.682V31.0647ZM103.4 61.7719H97.3695C97.5371 63.0666 98.5901 63.9323 100.058 63.9323C100.927 63.9323 101.653 63.6385 102.204 63.0427L102.946 63.9085C102.276 64.6869 101.246 65.1079 100.018 65.1079C97.6168 65.1079 96.0214 63.5273 96.0214 61.3271C96.0214 59.1269 97.6089 57.5621 99.7467 57.5621C101.885 57.5621 103.424 59.0951 103.424 61.3747C103.424 61.4859 103.408 61.6527 103.392 61.7798L103.4 61.7719ZM97.3775 60.8028H102.14C101.996 59.5638 101.063 58.6821 99.7547 58.6821C98.4465 58.6821 97.5131 59.5479 97.3695 60.8028H97.3775ZM114.018 65.0205L111.872 62.1849L109.702 65.0205H108.203L111.13 61.2397L108.338 57.6257H109.838L111.888 60.2945L113.922 57.6257H115.39L112.59 61.2397L115.55 65.0205H114.026H114.018ZM120.28 61.3191C120.28 59.1189 121.923 57.5542 124.205 57.5542C125.537 57.5542 126.646 58.0943 127.228 59.1348L126.207 59.7941C125.728 59.0633 125.003 58.7297 124.189 58.7297C122.729 58.7297 121.636 59.7464 121.636 61.3271C121.636 62.9077 122.729 63.9403 124.189 63.9403C125.003 63.9403 125.728 63.6067 126.207 62.8759L127.228 63.5193C126.638 64.5519 125.529 65.1079 124.205 65.1079C121.923 65.1079 120.28 63.5273 120.28 61.3271V61.3191ZM140.119 60.7631V65.0205H138.771V60.914C138.771 59.4605 138.037 58.7536 136.769 58.7536C135.341 58.7536 134.416 59.6035 134.416 61.2079V65.0205H133.067V54.663H134.416V58.6662C134.974 57.9513 135.899 57.5542 137.04 57.5542C138.851 57.5542 140.127 58.5868 140.127 60.7631H140.119ZM152.699 60.5566V65.0205H151.423V64.0435C150.976 64.7107 150.147 65.0999 148.982 65.0999C147.299 65.0999 146.238 64.2103 146.238 62.9236C146.238 61.7401 147.012 60.7631 149.221 60.7631H151.351V60.4931C151.351 59.3652 150.697 58.7059 149.365 58.7059C148.479 58.7059 147.586 59.0157 147.012 59.5002L146.453 58.4994C147.227 57.8799 148.336 57.5463 149.524 57.5463C151.559 57.5463 152.707 58.5232 152.707 60.5487L152.699 60.5566ZM151.351 62.7647V61.7322H149.277C147.945 61.7322 147.57 62.2485 147.57 62.8759C147.57 63.6146 148.184 64.0753 149.205 64.0753C150.226 64.0753 151.016 63.6146 151.351 62.7647ZM166.444 60.7631V65.0205H165.096V60.914C165.096 59.4605 164.362 58.7536 163.094 58.7536C161.666 58.7536 160.74 59.6035 160.74 61.2079V65.0205H159.392V57.6257H160.676V58.7377C161.227 57.9831 162.176 57.5542 163.357 57.5542C165.168 57.5542 166.444 58.5868 166.444 60.7631ZM180.284 57.6257V64.0197C180.284 66.6329 178.952 67.8164 176.431 67.8164C175.075 67.8164 173.695 67.4431 172.882 66.7123L173.528 65.6798C174.214 66.2676 175.299 66.6409 176.392 66.6409C178.147 66.6409 178.944 65.8307 178.944 64.1547V63.567C178.298 64.3374 177.333 64.7107 176.264 64.7107C174.118 64.7107 172.491 63.2572 172.491 61.1285C172.491 58.9998 174.118 57.5542 176.264 57.5542C177.373 57.5542 178.378 57.9593 179.016 58.7695V57.6257H180.292H180.284ZM178.968 61.1285C178.968 59.6908 177.899 58.7297 176.415 58.7297C174.932 58.7297 173.847 59.6908 173.847 61.1285C173.847 62.5662 174.916 63.5431 176.415 63.5431C177.915 63.5431 178.968 62.5503 178.968 61.1285ZM193.734 61.7719H187.703C187.871 63.0666 188.924 63.9323 190.392 63.9323C191.261 63.9323 191.987 63.6385 192.537 63.0427L193.279 63.9085C192.609 64.6869 191.58 65.1079 190.352 65.1079C187.951 65.1079 186.355 63.5273 186.355 61.3271C186.355 59.1269 187.943 57.5621 190.08 57.5621C192.218 57.5621 193.758 59.0951 193.758 61.3747C193.758 61.4859 193.742 61.6527 193.726 61.7798L193.734 61.7719ZM187.711 60.8028H192.474C192.33 59.5638 191.397 58.6821 190.088 58.6821C188.78 58.6821 187.847 59.5479 187.703 60.8028H187.711Z" fill="url(#paint0_linear_13_271)"/>
</g>
<defs>
<linearGradient id="paint0_linear_13_271" x1="51.2135" y1="-29.3649" x2="126.083" y2="59.8737" gradientUnits="userSpaceOnUse">
<stop stop-color="#009DE0"/>
<stop offset="1" stop-color="#24498C"/>
</linearGradient>
<clipPath id="clip0_13_271">
<rect width="221" height="79" fill="white"/>
</clipPath>
</defs>
</svg>
